<?xml version="1.0" encoding="UTF-8"?> <svg xmlns="http://www.w3.org/2000/svg" viewBox="0 0 616.56 129.29"><defs><style>.cls-1{fill:#6b6b6b;}.cls-2{fill:#69d162;}.cls-3{fill:#fafafa;}.cls-4{fill:#fff;}</style></defs><g id="spento"><path class="cls-1" d="M267.12,79.08h55.47a34.13,34.13,0,0,1,34.14,34.13h0a34.13,34.13,0,0,1-34.14,34.14H267.12A34.13,34.13,0,0,1,233,113.21h0A34.13,34.13,0,0,1,267.12,79.08ZM362,136.37a2.51,2.51,0,0,0,2.43,2.43h9.48c2.43,0,3.2-.64,3.2-2.43V108.21a12.85,12.85,0,0,1,12-8.07c6.14,0,9.6,4.23,9.6,10.89v25.34a2.43,2.43,0,0,0,2.43,2.43h10.5a2.51,2.51,0,0,0,2.43-2.43V111.79c0-13.31-6.53-25.47-22.79-25.47a25.18,25.18,0,0,0-18,7.55l-1.8-4.73a2.22,2.22,0,0,0-2.17-1.54h-4.87A2.43,2.43,0,0,0,362,90Zm93.88,2.43H439.44c-2.81,0-5.12-1.66-5.12-4.35a5.09,5.09,0,0,1,4.74-4.86c2.05,0,5.37,1,10.24,1,13.44,0,21.89-10,21.89-20.1,0-9.09-5.12-13.05-5.12-13.05l7.17-2.31A2.24,2.24,0,0,0,474.65,93V88.75a2.36,2.36,0,0,0-2.44-2.43h-23.3a22.29,22.29,0,0,0-22.27,22.27c0,7.68,3.84,12,3.84,12s-9.6,4.35-9.6,14.33a13.85,13.85,0,0,0,9.6,13.45v.38c-1.28.77-7.68,4.48-7.68,12.16,0,8.19,7.17,17.54,26.11,17.54,18.57,0,28-10,28-21.76C477,145.46,467.48,138.8,455.83,138.8ZM449.3,100c5.25,0,8.83,3.84,8.83,9.21s-3.58,9.22-8.83,9.22a9.22,9.22,0,0,1,0-18.43Zm-.51,65.67c-6.92,0-11.27-3.08-11.27-7.56,0-4,4-5.76,5.51-6.27a59.78,59.78,0,0,1,8.32-.51c7.55,0,9.34,4,9.34,6.27C460.69,162.49,456,165.69,448.79,165.69Zm32.34-29.32a2.52,2.52,0,0,0,2.44,2.43h10.75a2.51,2.51,0,0,0,2.43-2.43V51.63a2.51,2.51,0,0,0-2.43-2.43H483.57a2.52,2.52,0,0,0-2.44,2.43Zm36.4-66.95a8.83,8.83,0,1,0,0-17.66,8.83,8.83,0,0,0,0,17.66Zm-7.55,67a2.51,2.51,0,0,0,2.43,2.43H523a2.51,2.51,0,0,0,2.43-2.43V90A2.43,2.43,0,0,0,523,87.6H512.41A2.43,2.43,0,0,0,510,90Zm26.67-1c2.68,2.05,8.57,4.73,17,4.73,12.93,0,20.36-7.16,20.36-15.61,0-10-7.43-14.21-17.29-18-4.73-1.92-7-2.69-7-5,0-1.66,1.28-2.94,4.36-2.94,4.86,0,10.62,2.69,10.62,2.69a2.46,2.46,0,0,0,3.07-.9l3.2-6.53a2.72,2.72,0,0,0-1.15-3.45c-2.69-1.79-8.19-4-15.74-4-13.06,0-18.82,7.3-18.82,15.1s4.61,13.06,14.46,16.9c6.79,2.69,8.58,4.1,8.58,6.4s-1.79,3.2-4.35,3.2c-5.89,0-11.65-3.07-11.65-3.07a2,2,0,0,0-2.95.9l-3.45,6.91A2.2,2.2,0,0,0,536.65,135.35Zm44.37,1a2.52,2.52,0,0,0,2.44,2.43h10.62c1.92,0,2.69-1,2.69-2.43V109.23c1.28-5.25,5.25-9.09,11.14-9.09,6.14,0,10.11,4.48,10.11,11.53v24.7a2.43,2.43,0,0,0,2.43,2.43h10.37a2.51,2.51,0,0,0,2.43-2.43V111.79c0-12.93-6.65-25.47-22.91-25.47a23.6,23.6,0,0,0-13.57,4.22V51.63a2.51,2.51,0,0,0-2.43-2.43H583.46A2.52,2.52,0,0,0,581,51.63Z" transform="translate(-16.7 -49.2)"></path><path class="cls-1" d="M37.18,106.42a33,33,0,0,1,9.34,1.4C46.65,101.3,44.6,99,39.87,99a62,62,0,0,0-14.34,1.92c-1.79.51-2.69-.64-3-2.3L21.43,92a2.52,2.52,0,0,1,1.8-3.2,68.71,68.71,0,0,1,17.4-2.43c16,0,19.72,8.32,19.72,22.27v27.78a2.51,2.51,0,0,1-2.43,2.43H53.31c-.9,0-1.54-.38-2.18-1.79l-1.53-3.45c-3,2.68-7.69,6.52-15.62,6.52-10.24,0-17.28-6.65-17.28-17.53C16.7,113.46,24.12,106.42,37.18,106.42Zm.25,22.78c4.1,0,8.07-3.45,8.84-5v-7a20,20,0,0,0-7.17-1.54c-5,0-8.32,2.82-8.32,6.92A6.38,6.38,0,0,0,37.43,129.2Z" transform="translate(-16.7 -49.2)"></path><path class="cls-1" d="M92,86.32c7.93,0,14.08,3.2,18.94,9.09a2.42,2.42,0,0,1-.64,3.58l-5.89,5.63c-1.15,1-2.3.39-3.2-.38a12,12,0,0,0-8.83-4.1c-6.91,0-12.54,5.89-12.54,13.06s5.5,13.06,12.41,13.06c5.51,0,7.94-2.69,10.24-4.87a2.39,2.39,0,0,1,3.2-.38l5.51,4.74c1.28,1,1.79,2.3.89,3.58-4.35,6.79-11.13,10.75-20.22,10.75A27,27,0,0,1,64.7,113.2C64.7,98.1,77.63,86.32,92,86.32Z" transform="translate(-16.7 -49.2)"></path><path class="cls-1" d="M121.62,101h-4.35a2.4,2.4,0,0,1-2.3-2.43V90a2.32,2.32,0,0,1,2.3-2.43h4.35V73.39A2.52,2.52,0,0,1,124.06,71l10.49-.13a2.41,2.41,0,0,1,2.31,2.43V87.6h11.26A2.36,2.36,0,0,1,150.56,90v8.58a2.43,2.43,0,0,1-2.44,2.43H136.86v20.48c0,3.59,1.92,4.1,4,4.1a20.74,20.74,0,0,0,6.27-1.41,2,2,0,0,1,2.81,1.41l2.57,8.06a2.33,2.33,0,0,1-1.41,3.08c-.64.38-9,3.32-15.24,3.32-9.85,0-14.21-6.14-14.21-16.51Z" transform="translate(-16.7 -49.2)"></path><path class="cls-1" d="M157.68,60.59a8.74,8.74,0,0,1,8.71-8.83,8.83,8.83,0,1,1,0,17.66A8.74,8.74,0,0,1,157.68,60.59ZM158.83,90a2.43,2.43,0,0,1,2.43-2.43h10.63A2.43,2.43,0,0,1,174.32,90v46.34a2.51,2.51,0,0,1-2.43,2.43H161.26a2.51,2.51,0,0,1-2.43-2.43Z" transform="translate(-16.7 -49.2)"></path><path class="cls-1" d="M180.77,90.67c-.77-1.66-.13-3.07,1.79-3.07H193.7A2.35,2.35,0,0,1,196,89l10.37,23.81h.26l11-23.81c.64-1.28,1.67-1.41,3.08-1.41h10c1.92,0,2.69,1.41,1.79,3.07L209.06,138.8a2.43,2.43,0,0,1-2.18,1.28h-.64a2.43,2.43,0,0,1-2.18-1.28Z" transform="translate(-16.7 -49.2)"></path><path class="cls-1" d="M87.88,156.38h2L93.33,175H91.19l-.85-4.9H80.23L76.74,175h-2.3ZM90,168.26l-1.67-9.5-6.77,9.5Z" transform="translate(-16.7 -49.2)"></path><path class="cls-1" d="M96,167.7c0-6,5-11.51,11.11-11.51a7.53,7.53,0,0,1,7,4l-1.8,1.11a5.7,5.7,0,0,0-5.37-3.15c-4.82,0-8.73,4.6-8.73,9.5a5.48,5.48,0,0,0,5.79,5.79,7.7,7.7,0,0,0,5.74-2.51l1.41,1.38a9.72,9.72,0,0,1-7.25,3.09C99.52,175.37,96,172.46,96,167.7Z" transform="translate(-16.7 -49.2)"></path><path class="cls-1" d="M122,158.44h-6.24l.53-1.93h14.57l-.52,1.93H124.1L119.66,175h-2.09Z" transform="translate(-16.7 -49.2)"></path><path class="cls-1" d="M134.1,156.51h2.09l-5,18.52h-2.09Z" transform="translate(-16.7 -49.2)"></path><path class="cls-1" d="M138.94,156.51h2.23l2.27,15.93,10.82-15.93h2.38l-12.91,18.65h-1.88Z" transform="translate(-16.7 -49.2)"></path><path class="cls-1" d="M164.16,156.38h2L169.61,175h-2.14l-.85-4.9H156.51L153,175h-2.3Zm2.12,11.88-1.67-9.5-6.77,9.5Z" transform="translate(-16.7 -49.2)"></path><path class="cls-1" d="M178.9,158.44h-6.25l.53-1.93h14.58l-.53,1.93H181L176.54,175h-2.09Z" transform="translate(-16.7 -49.2)"></path><path class="cls-1" d="M190.8,156.51h13.26l-.53,1.9H192.37l-1.7,6.33h10l-.53,1.9h-10l-1.75,6.48h11.3l-.5,1.91H185.83Z" transform="translate(-16.7 -49.2)"></path><path class="cls-1" d="M216.92,167.57l-4.58-11.06h2.33l3.7,9.34,8.74-9.34h2.67l-10.85,11.4L217,175h-2.11Z" transform="translate(-16.7 -49.2)"></path><path class="cls-1" d="M228.16,167.33c0-5.72,4.69-11.14,10.8-11.14a7.84,7.84,0,0,1,8.12,8c0,5.74-4.68,11.16-10.79,11.16A7.85,7.85,0,0,1,228.16,167.33Zm16.73-3a5.85,5.85,0,0,0-6.06-6.17c-4.85,0-8.47,4.55-8.47,9.16a5.84,5.84,0,0,0,6.06,6.16C241.26,173.44,244.89,168.89,244.89,164.29Z" transform="translate(-16.7 -49.2)"></path><path class="cls-1" d="M250,169.39a10.32,10.32,0,0,1,.4-2.88l2.64-10h2.12l-2.81,10.55a8.33,8.33,0,0,0-.26,2.09c0,2.41,1.56,4.24,4.84,4.24a5.79,5.79,0,0,0,4.13-1.7,10,10,0,0,0,2.35-4.52l2.89-10.66h2.09l-3,11a11.93,11.93,0,0,1-2.91,5.48,7.86,7.86,0,0,1-5.76,2.3C252.35,175.32,250,172.86,250,169.39Z" transform="translate(-16.7 -49.2)"></path><path class="cls-1" d="M272.88,156.51h6.67c3.54,0,5.71,1.43,6.06,3.89a5.24,5.24,0,0,1-.82,3.83c-.88,1.8-2.89,3-5.59,3.39L283,175h-2.4l-3.66-7.2h-5L270,175h-2.08Zm4.58,9.44c2.7,0,4.65-.84,5.47-2.19a3.47,3.47,0,0,0,.74-2.6c-.13-1.69-1.53-2.72-4.23-2.72h-5l-2,7.51Z" transform="translate(-16.7 -49.2)"></path><path class="cls-1" d="M298.73,156.51H312l-.53,1.9H300.29l-1.69,6.33h10l-.53,1.9h-10l-1.74,6.48h11.3l-.51,1.91H293.76Z" transform="translate(-16.7 -49.2)"></path><path class="cls-1" d="M315.48,156.51h1.93l7.54,15,4.05-15h2l-5,18.52H324.4l-7.73-15.37L312.54,175h-2Z" transform="translate(-16.7 -49.2)"></path><path class="cls-1" d="M332.25,167.49a11.53,11.53,0,0,1,11.38-11.3c3.81,0,5.82,1.64,7,3.39L349,160.82a6.17,6.17,0,0,0-5.58-2.72c-5.14,0-9,4.62-9,9.31,0,3.81,2.54,6,6.14,6a8.86,8.86,0,0,0,4.79-1.3l1.45-5.13h-5.58l.5-1.88h7.65L347,173.44a11.93,11.93,0,0,1-6.59,1.93C336,175.37,332.25,172.46,332.25,167.49Z" transform="translate(-16.7 -49.2)"></path><path class="cls-1" d="M356,156.51h2.09l-4.44,16.59H364L363.5,175H351Z" transform="translate(-16.7 -49.2)"></path><path class="cls-1" d="M371.68,156.51h2.09l-5,18.52H366.7Z" transform="translate(-16.7 -49.2)"></path><path class="cls-1" d="M373.21,171.77l1.59-1.24a7.26,7.26,0,0,0,6.11,2.88c2.67,0,4.68-1.45,4.68-3.46,0-1.43-.95-2.28-3.81-3.39-3.41-1.35-5.08-2.54-5.08-4.95,0-3.06,2.84-5.37,6.83-5.37a8.47,8.47,0,0,1,6.56,2.81l-1.53,1.37a6.75,6.75,0,0,0-5.22-2.3c-2.77,0-4.44,1.56-4.44,3.26,0,1.5,1.19,2.27,4.1,3.41,3.18,1.22,4.79,2.51,4.79,4.89,0,3.26-3.07,5.61-7,5.61A8.9,8.9,0,0,1,373.21,171.77Z" transform="translate(-16.7 -49.2)"></path><path class="cls-1" d="M395,156.51h2.09l-2.2,8.23h10.56l2.19-8.23h2.12l-5,18.52h-2.12l2.25-8.34H394.35L392.1,175H390Z" transform="translate(-16.7 -49.2)"></path></g><g id="acceso"><path class="cls-2" d="M267.12,79.08h55.47a34.13,34.13,0,0,1,34.14,34.13h0a34.13,34.13,0,0,1-34.14,34.14H267.12A34.13,34.13,0,0,1,233,113.21h0A34.13,34.13,0,0,1,267.12,79.08ZM362,136.37a2.51,2.51,0,0,0,2.43,2.43h9.48c2.43,0,3.2-.64,3.2-2.43V108.21a12.85,12.85,0,0,1,12-8.07c6.14,0,9.6,4.23,9.6,10.89v25.34a2.43,2.43,0,0,0,2.43,2.43h10.5a2.51,2.51,0,0,0,2.43-2.43V111.79c0-13.31-6.53-25.47-22.79-25.47a25.18,25.18,0,0,0-18,7.55l-1.8-4.73a2.22,2.22,0,0,0-2.17-1.54h-4.87A2.43,2.43,0,0,0,362,90Zm93.88,2.43H439.44c-2.81,0-5.12-1.66-5.12-4.35a5.09,5.09,0,0,1,4.74-4.86c2.05,0,5.37,1,10.24,1,13.44,0,21.89-10,21.89-20.1,0-9.09-5.12-13.05-5.12-13.05l7.17-2.31A2.24,2.24,0,0,0,474.65,93V88.75a2.36,2.36,0,0,0-2.44-2.43h-23.3a22.29,22.29,0,0,0-22.27,22.27c0,7.68,3.84,12,3.84,12s-9.6,4.35-9.6,14.33a13.85,13.85,0,0,0,9.6,13.45v.38c-1.28.77-7.68,4.48-7.68,12.16,0,8.19,7.17,17.54,26.11,17.54,18.57,0,28-10,28-21.76C477,145.46,467.48,138.8,455.83,138.8ZM449.3,100c5.25,0,8.83,3.84,8.83,9.21s-3.58,9.22-8.83,9.22a9.22,9.22,0,0,1,0-18.43Zm-.51,65.67c-6.92,0-11.27-3.08-11.27-7.56,0-4,4-5.76,5.51-6.27a59.78,59.78,0,0,1,8.32-.51c7.55,0,9.34,4,9.34,6.27C460.69,162.49,456,165.69,448.79,165.69Zm32.34-29.32a2.52,2.52,0,0,0,2.44,2.43h10.75a2.51,2.51,0,0,0,2.43-2.43V51.63a2.51,2.51,0,0,0-2.43-2.43H483.57a2.52,2.52,0,0,0-2.44,2.43Zm36.4-66.95a8.83,8.83,0,1,0,0-17.66,8.83,8.83,0,0,0,0,17.66Zm-7.55,67a2.51,2.51,0,0,0,2.43,2.43H523a2.51,2.51,0,0,0,2.43-2.43V90A2.43,2.43,0,0,0,523,87.6H512.41A2.43,2.43,0,0,0,510,90Zm26.67-1c2.68,2.05,8.57,4.73,17,4.73,12.93,0,20.36-7.16,20.36-15.61,0-10-7.43-14.21-17.29-18-4.73-1.92-7-2.69-7-5,0-1.66,1.28-2.94,4.36-2.94,4.86,0,10.62,2.69,10.62,2.69a2.46,2.46,0,0,0,3.07-.9l3.2-6.53a2.72,2.72,0,0,0-1.15-3.45c-2.69-1.79-8.19-4-15.74-4-13.06,0-18.82,7.3-18.82,15.1s4.61,13.06,14.46,16.9c6.79,2.69,8.58,4.1,8.58,6.4s-1.79,3.2-4.35,3.2c-5.89,0-11.65-3.07-11.65-3.07a2,2,0,0,0-2.95.9l-3.45,6.91A2.2,2.2,0,0,0,536.65,135.35Zm44.37,1a2.52,2.52,0,0,0,2.44,2.43h10.62c1.92,0,2.69-1,2.69-2.43V109.23c1.28-5.25,5.25-9.09,11.14-9.09,6.14,0,10.11,4.48,10.11,11.53v24.7a2.43,2.43,0,0,0,2.43,2.43h10.37a2.51,2.51,0,0,0,2.43-2.43V111.79c0-12.93-6.65-25.47-22.91-25.47a23.6,23.6,0,0,0-13.57,4.22V51.63a2.51,2.51,0,0,0-2.43-2.43H583.46A2.52,2.52,0,0,0,581,51.63Z" transform="translate(-16.7 -49.2)"></path><path class="cls-3" d="M37.18,106.42a33,33,0,0,1,9.34,1.4C46.65,101.3,44.6,99,39.87,99a62,62,0,0,0-14.34,1.92c-1.79.51-2.69-.64-3-2.3L21.43,92a2.52,2.52,0,0,1,1.8-3.2,68.71,68.71,0,0,1,17.4-2.43c16,0,19.72,8.32,19.72,22.27v27.78a2.51,2.51,0,0,1-2.43,2.43H53.31c-.9,0-1.54-.38-2.18-1.79l-1.53-3.45c-3,2.68-7.69,6.52-15.62,6.52-10.24,0-17.28-6.65-17.28-17.53C16.7,113.46,24.12,106.42,37.18,106.42Zm.25,22.78c4.1,0,8.07-3.45,8.84-5v-7a20,20,0,0,0-7.17-1.54c-5,0-8.32,2.82-8.32,6.92A6.38,6.38,0,0,0,37.43,129.2Z" transform="translate(-16.7 -49.2)"></path><path class="cls-3" d="M92,86.32c7.93,0,14.08,3.2,18.94,9.09a2.42,2.42,0,0,1-.64,3.58l-5.89,5.63c-1.15,1-2.3.39-3.2-.38a12,12,0,0,0-8.83-4.1c-6.91,0-12.54,5.89-12.54,13.06s5.5,13.06,12.41,13.06c5.51,0,7.94-2.69,10.24-4.87a2.39,2.39,0,0,1,3.2-.38l5.51,4.74c1.28,1,1.79,2.3.89,3.58-4.35,6.79-11.13,10.75-20.22,10.75A27,27,0,0,1,64.7,113.2C64.7,98.1,77.63,86.32,92,86.32Z" transform="translate(-16.7 -49.2)"></path><path class="cls-3" d="M121.62,101h-4.35a2.4,2.4,0,0,1-2.3-2.43V90a2.32,2.32,0,0,1,2.3-2.43h4.35V73.39A2.52,2.52,0,0,1,124.06,71l10.49-.13a2.41,2.41,0,0,1,2.31,2.43V87.6h11.26A2.36,2.36,0,0,1,150.56,90v8.58a2.43,2.43,0,0,1-2.44,2.43H136.86v20.48c0,3.59,1.92,4.1,4,4.1a20.74,20.74,0,0,0,6.27-1.41,2,2,0,0,1,2.81,1.41l2.57,8.06a2.33,2.33,0,0,1-1.41,3.08c-.64.38-9,3.32-15.24,3.32-9.85,0-14.21-6.14-14.21-16.51Z" transform="translate(-16.7 -49.2)"></path><path class="cls-3" d="M157.68,60.59a8.74,8.74,0,0,1,8.71-8.83,8.83,8.83,0,1,1,0,17.66A8.74,8.74,0,0,1,157.68,60.59ZM158.83,90a2.43,2.43,0,0,1,2.43-2.43h10.63A2.43,2.43,0,0,1,174.32,90v46.34a2.51,2.51,0,0,1-2.43,2.43H161.26a2.51,2.51,0,0,1-2.43-2.43Z" transform="translate(-16.7 -49.2)"></path><path class="cls-3" d="M180.77,90.67c-.77-1.66-.13-3.07,1.79-3.07H193.7A2.35,2.35,0,0,1,196,89l10.37,23.81h.26l11-23.81c.64-1.28,1.67-1.41,3.08-1.41h10c1.92,0,2.69,1.41,1.79,3.07L209.06,138.8a2.43,2.43,0,0,1-2.18,1.28h-.64a2.43,2.43,0,0,1-2.18-1.28Z" transform="translate(-16.7 -49.2)"></path><path class="cls-3" d="M87.88,156.38h2L93.33,175H91.19l-.85-4.9H80.23L76.74,175h-2.3ZM90,168.26l-1.67-9.5-6.77,9.5Z" transform="translate(-16.7 -49.2)"></path><path class="cls-3" d="M96,167.7c0-6,5-11.51,11.11-11.51a7.53,7.53,0,0,1,7,4l-1.8,1.11a5.7,5.7,0,0,0-5.37-3.15c-4.82,0-8.73,4.6-8.73,9.5a5.48,5.48,0,0,0,5.79,5.79,7.7,7.7,0,0,0,5.74-2.51l1.41,1.38a9.72,9.72,0,0,1-7.25,3.09C99.52,175.37,96,172.46,96,167.7Z" transform="translate(-16.7 -49.2)"></path><path class="cls-3" d="M122,158.44h-6.24l.53-1.93h14.57l-.52,1.93H124.1L119.66,175h-2.09Z" transform="translate(-16.7 -49.2)"></path><path class="cls-3" d="M134.1,156.51h2.09l-5,18.52h-2.09Z" transform="translate(-16.7 -49.2)"></path><path class="cls-3" d="M138.94,156.51h2.23l2.27,15.93,10.82-15.93h2.38l-12.91,18.65h-1.88Z" transform="translate(-16.7 -49.2)"></path><path class="cls-3" d="M164.16,156.38h2L169.61,175h-2.14l-.85-4.9H156.51L153,175h-2.3Zm2.12,11.88-1.67-9.5-6.77,9.5Z" transform="translate(-16.7 -49.2)"></path><path class="cls-3" d="M178.9,158.44h-6.25l.53-1.93h14.58l-.53,1.93H181L176.54,175h-2.09Z" transform="translate(-16.7 -49.2)"></path><path class="cls-3" d="M190.8,156.51h13.26l-.53,1.9H192.37l-1.7,6.33h10l-.53,1.9h-10l-1.75,6.48h11.3l-.5,1.91H185.83Z" transform="translate(-16.7 -49.2)"></path><path class="cls-3" d="M216.92,167.57l-4.58-11.06h2.33l3.7,9.34,8.74-9.34h2.67l-10.85,11.4L217,175h-2.11Z" transform="translate(-16.7 -49.2)"></path><path class="cls-3" d="M228.16,167.33c0-5.72,4.69-11.14,10.8-11.14a7.84,7.84,0,0,1,8.12,8c0,5.74-4.68,11.16-10.79,11.16A7.85,7.85,0,0,1,228.16,167.33Zm16.73-3a5.85,5.85,0,0,0-6.06-6.17c-4.85,0-8.47,4.55-8.47,9.16a5.84,5.84,0,0,0,6.06,6.16C241.26,173.44,244.89,168.89,244.89,164.29Z" transform="translate(-16.7 -49.2)"></path><path class="cls-3" d="M250,169.39a10.32,10.32,0,0,1,.4-2.88l2.64-10h2.12l-2.81,10.55a8.33,8.33,0,0,0-.26,2.09c0,2.41,1.56,4.24,4.84,4.24a5.79,5.79,0,0,0,4.13-1.7,10,10,0,0,0,2.35-4.52l2.89-10.66h2.09l-3,11a11.93,11.93,0,0,1-2.91,5.48,7.86,7.86,0,0,1-5.76,2.3C252.35,175.32,250,172.86,250,169.39Z" transform="translate(-16.7 -49.2)"></path><path class="cls-3" d="M272.88,156.51h6.67c3.54,0,5.71,1.43,6.06,3.89a5.24,5.24,0,0,1-.82,3.83c-.88,1.8-2.89,3-5.59,3.39L283,175h-2.4l-3.66-7.2h-5L270,175h-2.08Zm4.58,9.44c2.7,0,4.65-.84,5.47-2.19a3.47,3.47,0,0,0,.74-2.6c-.13-1.69-1.53-2.72-4.23-2.72h-5l-2,7.51Z" transform="translate(-16.7 -49.2)"></path><path class="cls-3" d="M298.73,156.51H312l-.53,1.9H300.29l-1.69,6.33h10l-.53,1.9h-10l-1.74,6.48h11.3l-.51,1.91H293.76Z" transform="translate(-16.7 -49.2)"></path><path class="cls-3" d="M315.48,156.51h1.93l7.54,15,4.05-15h2l-5,18.52H324.4l-7.73-15.37L312.54,175h-2Z" transform="translate(-16.7 -49.2)"></path><path class="cls-3" d="M332.25,167.49a11.53,11.53,0,0,1,11.38-11.3c3.81,0,5.82,1.64,7,3.39L349,160.82a6.17,6.17,0,0,0-5.58-2.72c-5.14,0-9,4.62-9,9.31,0,3.81,2.54,6,6.14,6a8.86,8.86,0,0,0,4.79-1.3l1.45-5.13h-5.58l.5-1.88h7.65L347,173.44a11.93,11.93,0,0,1-6.59,1.93C336,175.37,332.25,172.46,332.25,167.49Z" transform="translate(-16.7 -49.2)"></path><path class="cls-3" d="M356,156.51h2.09l-4.44,16.59H364L363.5,175H351Z" transform="translate(-16.7 -49.2)"></path><path class="cls-3" d="M371.68,156.51h2.09l-5,18.52H366.7Z" transform="translate(-16.7 -49.2)"></path><path class="cls-3" d="M373.21,171.77l1.59-1.24a7.26,7.26,0,0,0,6.11,2.88c2.67,0,4.68-1.45,4.68-3.46,0-1.43-.95-2.28-3.81-3.39-3.41-1.35-5.08-2.54-5.08-4.95,0-3.06,2.84-5.37,6.83-5.37a8.47,8.47,0,0,1,6.56,2.81l-1.53,1.37a6.75,6.75,0,0,0-5.22-2.3c-2.77,0-4.44,1.56-4.44,3.26,0,1.5,1.19,2.27,4.1,3.41,3.18,1.22,4.79,2.51,4.79,4.89,0,3.26-3.07,5.61-7,5.61A8.9,8.9,0,0,1,373.21,171.77Z" transform="translate(-16.7 -49.2)"></path><path class="cls-3" d="M395,156.51h2.09l-2.2,8.23h10.56l2.19-8.23h2.12l-5,18.52h-2.12l2.25-8.34H394.35L392.1,175H390Z" transform="translate(-16.7 -49.2)"></path></g><g id="e"><path class="cls-4" d="M350.7,113.2a27.28,27.28,0,0,0-.8-6.43c-.18-.71-.39-1.42-.62-2.12A26.86,26.86,0,0,0,297,113.2c0,.85.05,1.68.13,2.51a26.82,26.82,0,0,0,49.29,12,1.38,1.38,0,0,0-.71-2L335.64,122a1.39,1.39,0,0,0-1.53.41,13.75,13.75,0,0,1-23.36-4.9h38.57a1.38,1.38,0,0,0,1.38-1.38ZM323.85,99.37a13.76,13.76,0,0,1,10.82,5.28,14.26,14.26,0,0,1,1.42,2.12H311.6a14.26,14.26,0,0,1,1.42-2.12A13.77,13.77,0,0,1,323.85,99.37Z" transform="translate(-16.7 -49.2)"></path></g></svg> 